<mxfile host="app.diagrams.net" agent="Mozilla/5.0 (Macintosh; Intel Mac OS X 10_15_7) AppleWebKit/537.36 (KHTML, like Gecko) Chrome/127.0.0.0 Safari/537.36" version="24.7.8">
  <diagram name="PÃ¡gina-1" id="gFq8HzMVYSQL7bQ04pMt">
    <mxGraphModel dx="1314" dy="811" grid="0" gridSize="10" guides="1" tooltips="1" connect="1" arrows="1" fold="1" page="0" pageScale="1" pageWidth="827" pageHeight="1169" math="0" shadow="0">
      <root>
        <mxCell id="0" />
        <mxCell id="1" parent="0" />
        <mxCell id="I4P0Yg_FBCmQ30NMPcK1-1" value="Consultorio" style="whiteSpace=wrap;html=1;align=center;labelBackgroundColor=none;rounded=1;fontStyle=1;fillColor=#21C0A5;strokeColor=#006658;fontColor=#5C5C5C;" parent="1" vertex="1">
          <mxGeometry x="364" y="990" width="100" height="40" as="geometry" />
        </mxCell>
        <mxCell id="I4P0Yg_FBCmQ30NMPcK1-3" value="codigo_comuna" style="ellipse;whiteSpace=wrap;html=1;align=center;labelBackgroundColor=none;rounded=1;fillColor=#21C0A5;strokeColor=#006658;fontColor=#5C5C5C;" parent="1" vertex="1">
          <mxGeometry x="80" y="1060" width="100" height="40" as="geometry" />
        </mxCell>
        <mxCell id="I4P0Yg_FBCmQ30NMPcK1-4" value="nombre" style="ellipse;whiteSpace=wrap;html=1;align=center;labelBackgroundColor=none;rounded=1;fillColor=#21C0A5;strokeColor=#006658;fontColor=#5C5C5C;" parent="1" vertex="1">
          <mxGeometry x="532" y="1110" width="100" height="40" as="geometry" />
        </mxCell>
        <mxCell id="I4P0Yg_FBCmQ30NMPcK1-5" value="codigo_region" style="ellipse;whiteSpace=wrap;html=1;align=center;labelBackgroundColor=none;rounded=1;fillColor=#21C0A5;strokeColor=#006658;fontColor=#5C5C5C;" parent="1" vertex="1">
          <mxGeometry x="520" y="990" width="100" height="40" as="geometry" />
        </mxCell>
        <mxCell id="I4P0Yg_FBCmQ30NMPcK1-7" style="edgeStyle=orthogonalEdgeStyle;rounded=1;orthogonalLoop=1;jettySize=auto;html=1;exitX=1;exitY=0.5;exitDx=0;exitDy=0;entryX=0;entryY=0.5;entryDx=0;entryDy=0;endArrow=none;endFill=0;labelBackgroundColor=none;fontColor=default;strokeColor=#006658;" parent="1" source="I4P0Yg_FBCmQ30NMPcK1-6" target="I4P0Yg_FBCmQ30NMPcK1-1" edge="1">
          <mxGeometry relative="1" as="geometry" />
        </mxCell>
        <mxCell id="I4P0Yg_FBCmQ30NMPcK1-6" value="tipo" style="ellipse;whiteSpace=wrap;html=1;align=center;labelBackgroundColor=none;rounded=1;fillColor=#21C0A5;strokeColor=#006658;fontColor=#5C5C5C;" parent="1" vertex="1">
          <mxGeometry x="180" y="990" width="70" height="40" as="geometry" />
        </mxCell>
        <mxCell id="I4P0Yg_FBCmQ30NMPcK1-12" value="" style="endArrow=none;html=1;rounded=1;exitX=0.719;exitY=0.003;exitDx=0;exitDy=0;entryX=0;entryY=1;entryDx=0;entryDy=0;exitPerimeter=0;labelBackgroundColor=none;fontColor=default;strokeColor=#006658;" parent="1" source="I4P0Yg_FBCmQ30NMPcK1-31" target="I4P0Yg_FBCmQ30NMPcK1-1" edge="1">
          <mxGeometry width="50" height="50" relative="1" as="geometry">
            <mxPoint x="305.35533905932743" y="1065.8578643762692" as="sourcePoint" />
            <mxPoint x="440" y="690" as="targetPoint" />
          </mxGeometry>
        </mxCell>
        <mxCell id="I4P0Yg_FBCmQ30NMPcK1-13" value="" style="endArrow=none;html=1;rounded=1;entryX=1;entryY=1;entryDx=0;entryDy=0;exitX=0.09;exitY=0.15;exitDx=0;exitDy=0;exitPerimeter=0;labelBackgroundColor=none;fontColor=default;strokeColor=#006658;" parent="1" source="I4P0Yg_FBCmQ30NMPcK1-4" target="I4P0Yg_FBCmQ30NMPcK1-1" edge="1">
          <mxGeometry width="50" height="50" relative="1" as="geometry">
            <mxPoint x="510" y="680" as="sourcePoint" />
            <mxPoint x="560" y="630" as="targetPoint" />
          </mxGeometry>
        </mxCell>
        <mxCell id="I4P0Yg_FBCmQ30NMPcK1-20" value="" style="endArrow=none;html=1;rounded=1;entryX=0;entryY=0.75;entryDx=0;entryDy=0;exitX=0.94;exitY=0.25;exitDx=0;exitDy=0;exitPerimeter=0;labelBackgroundColor=none;fontColor=default;strokeColor=#006658;" parent="1" source="I4P0Yg_FBCmQ30NMPcK1-3" target="I4P0Yg_FBCmQ30NMPcK1-1" edge="1">
          <mxGeometry width="50" height="50" relative="1" as="geometry">
            <mxPoint x="180" y="1070" as="sourcePoint" />
            <mxPoint x="230" y="1020" as="targetPoint" />
          </mxGeometry>
        </mxCell>
        <mxCell id="I4P0Yg_FBCmQ30NMPcK1-24" value="" style="endArrow=none;html=1;rounded=1;entryX=1;entryY=0.75;entryDx=0;entryDy=0;exitX=-0.003;exitY=0.419;exitDx=0;exitDy=0;exitPerimeter=0;labelBackgroundColor=none;fontColor=default;strokeColor=#006658;" parent="1" source="I4P0Yg_FBCmQ30NMPcK1-25" target="I4P0Yg_FBCmQ30NMPcK1-1" edge="1">
          <mxGeometry width="50" height="50" relative="1" as="geometry">
            <mxPoint x="640" y="1040" as="sourcePoint" />
            <mxPoint x="490" y="1010" as="targetPoint" />
          </mxGeometry>
        </mxCell>
        <mxCell id="I4P0Yg_FBCmQ30NMPcK1-25" value="categoria" style="ellipse;shape=doubleEllipse;margin=3;whiteSpace=wrap;html=1;align=center;labelBackgroundColor=none;rounded=1;fillColor=#21C0A5;strokeColor=#006658;fontColor=#5C5C5C;" parent="1" vertex="1">
          <mxGeometry x="532" y="1060" width="100" height="40" as="geometry" />
        </mxCell>
        <mxCell id="I4P0Yg_FBCmQ30NMPcK1-31" value="id" style="ellipse;whiteSpace=wrap;html=1;align=center;fontStyle=4;labelBackgroundColor=none;rounded=1;fillColor=#21C0A5;strokeColor=#006658;fontColor=#5C5C5C;" parent="1" vertex="1">
          <mxGeometry x="230" y="1070" width="100" height="40" as="geometry" />
        </mxCell>
        <mxCell id="I4P0Yg_FBCmQ30NMPcK1-66" value="Tiene" style="rhombus;whiteSpace=wrap;html=1;labelBackgroundColor=none;rounded=1;fillColor=#21C0A5;strokeColor=#006658;fontColor=#5C5C5C;" parent="1" vertex="1">
          <mxGeometry x="430" y="850" width="64" height="64" as="geometry" />
        </mxCell>
        <mxCell id="I4P0Yg_FBCmQ30NMPcK1-67" value="" style="fontSize=12;html=1;endArrow=ERmany;rounded=1;exitX=0.5;exitY=1;exitDx=0;exitDy=0;labelBackgroundColor=none;fontColor=default;strokeColor=#006658;" parent="1" source="I4P0Yg_FBCmQ30NMPcK1-66" edge="1">
          <mxGeometry width="100" height="100" relative="1" as="geometry">
            <mxPoint x="410" y="960" as="sourcePoint" />
            <mxPoint x="462" y="990" as="targetPoint" />
          </mxGeometry>
        </mxCell>
        <mxCell id="I4P0Yg_FBCmQ30NMPcK1-68" value="Reserva" style="whiteSpace=wrap;html=1;align=center;labelBackgroundColor=none;rounded=1;fontStyle=1;fillColor=#21C0A5;strokeColor=#006658;fontColor=#5C5C5C;" parent="1" vertex="1">
          <mxGeometry x="580" y="862" width="100" height="40" as="geometry" />
        </mxCell>
        <mxCell id="I4P0Yg_FBCmQ30NMPcK1-69" value="" style="fontSize=12;html=1;endArrow=ERone;endFill=1;rounded=1;entryX=0;entryY=0.5;entryDx=0;entryDy=0;exitX=1;exitY=0.5;exitDx=0;exitDy=0;labelBackgroundColor=none;fontColor=default;strokeColor=#006658;" parent="1" source="I4P0Yg_FBCmQ30NMPcK1-66" target="I4P0Yg_FBCmQ30NMPcK1-68" edge="1">
          <mxGeometry width="100" height="100" relative="1" as="geometry">
            <mxPoint x="410" y="920" as="sourcePoint" />
            <mxPoint x="510" y="820" as="targetPoint" />
          </mxGeometry>
        </mxCell>
        <mxCell id="I4P0Yg_FBCmQ30NMPcK1-70" value="n" style="text;html=1;align=center;verticalAlign=middle;resizable=0;points=[];autosize=1;strokeColor=none;fillColor=none;labelBackgroundColor=none;rounded=1;fontColor=#5C5C5C;" parent="1" vertex="1">
          <mxGeometry x="430" y="960" width="30" height="30" as="geometry" />
        </mxCell>
        <mxCell id="I4P0Yg_FBCmQ30NMPcK1-71" value="1" style="text;html=1;align=center;verticalAlign=middle;resizable=0;points=[];autosize=1;strokeColor=none;fillColor=none;labelBackgroundColor=none;rounded=1;fontColor=#5C5C5C;" parent="1" vertex="1">
          <mxGeometry x="545" y="850" width="30" height="30" as="geometry" />
        </mxCell>
        <mxCell id="I4P0Yg_FBCmQ30NMPcK1-72" value="Usuario" style="whiteSpace=wrap;html=1;align=center;labelBackgroundColor=none;rounded=1;fontStyle=1;fillColor=#21C0A5;strokeColor=#006658;fontColor=#5C5C5C;" parent="1" vertex="1">
          <mxGeometry x="580" y="650" width="100" height="40" as="geometry" />
        </mxCell>
        <mxCell id="I4P0Yg_FBCmQ30NMPcK1-73" value="Realiza" style="rhombus;whiteSpace=wrap;html=1;labelBackgroundColor=none;rounded=1;fillColor=#21C0A5;strokeColor=#006658;fontColor=#5C5C5C;" parent="1" vertex="1">
          <mxGeometry x="598" y="740" width="64" height="64" as="geometry" />
        </mxCell>
        <mxCell id="I4P0Yg_FBCmQ30NMPcK1-74" value="" style="fontSize=12;html=1;endArrow=ERmany;rounded=1;exitX=0.5;exitY=1;exitDx=0;exitDy=0;entryX=0.5;entryY=0;entryDx=0;entryDy=0;labelBackgroundColor=none;fontColor=default;strokeColor=#006658;" parent="1" source="I4P0Yg_FBCmQ30NMPcK1-73" target="I4P0Yg_FBCmQ30NMPcK1-68" edge="1">
          <mxGeometry width="100" height="100" relative="1" as="geometry">
            <mxPoint x="410" y="830" as="sourcePoint" />
            <mxPoint x="510" y="730" as="targetPoint" />
          </mxGeometry>
        </mxCell>
        <mxCell id="I4P0Yg_FBCmQ30NMPcK1-75" value="" style="fontSize=12;html=1;endArrow=ERone;endFill=1;rounded=1;entryX=0.5;entryY=1;entryDx=0;entryDy=0;exitX=0.5;exitY=0;exitDx=0;exitDy=0;labelBackgroundColor=none;fontColor=default;strokeColor=#006658;" parent="1" source="I4P0Yg_FBCmQ30NMPcK1-73" target="I4P0Yg_FBCmQ30NMPcK1-72" edge="1">
          <mxGeometry width="100" height="100" relative="1" as="geometry">
            <mxPoint x="410" y="830" as="sourcePoint" />
            <mxPoint x="510" y="730" as="targetPoint" />
          </mxGeometry>
        </mxCell>
        <mxCell id="I4P0Yg_FBCmQ30NMPcK1-77" value="rut" style="ellipse;whiteSpace=wrap;html=1;align=center;fontStyle=4;labelBackgroundColor=none;rounded=1;fillColor=#21C0A5;strokeColor=#006658;fontColor=#5C5C5C;" parent="1" vertex="1">
          <mxGeometry x="440" y="600" width="100" height="40" as="geometry" />
        </mxCell>
        <mxCell id="I4P0Yg_FBCmQ30NMPcK1-78" value="direccion" style="ellipse;whiteSpace=wrap;html=1;align=center;labelBackgroundColor=none;rounded=1;fillColor=#21C0A5;strokeColor=#006658;fontColor=#5C5C5C;" parent="1" vertex="1">
          <mxGeometry x="740" y="660" width="130" height="40" as="geometry" />
        </mxCell>
        <mxCell id="I4P0Yg_FBCmQ30NMPcK1-83" value="n_telefono" style="ellipse;shape=doubleEllipse;margin=3;whiteSpace=wrap;html=1;align=center;labelBackgroundColor=none;rounded=1;fillColor=#21C0A5;strokeColor=#006658;fontColor=#5C5C5C;" parent="1" vertex="1">
          <mxGeometry x="755" y="585" width="100" height="40" as="geometry" />
        </mxCell>
        <mxCell id="I4P0Yg_FBCmQ30NMPcK1-84" value="correo" style="ellipse;shape=doubleEllipse;margin=3;whiteSpace=wrap;html=1;align=center;labelBackgroundColor=none;rounded=1;fillColor=#21C0A5;strokeColor=#006658;fontColor=#5C5C5C;" parent="1" vertex="1">
          <mxGeometry x="446" y="680" width="100" height="40" as="geometry" />
        </mxCell>
        <mxCell id="I4P0Yg_FBCmQ30NMPcK1-85" value="fecha_creacion" style="ellipse;whiteSpace=wrap;html=1;align=center;labelBackgroundColor=none;rounded=1;fillColor=#21C0A5;strokeColor=#006658;fontColor=#5C5C5C;" parent="1" vertex="1">
          <mxGeometry x="720" y="795" width="100" height="40" as="geometry" />
        </mxCell>
        <mxCell id="I4P0Yg_FBCmQ30NMPcK1-86" value="" style="endArrow=none;html=1;rounded=1;entryX=0.013;entryY=0.6;entryDx=0;entryDy=0;entryPerimeter=0;exitX=0.913;exitY=-0.011;exitDx=0;exitDy=0;exitPerimeter=0;labelBackgroundColor=none;fontColor=default;strokeColor=#006658;" parent="1" source="I4P0Yg_FBCmQ30NMPcK1-72" target="I4P0Yg_FBCmQ30NMPcK1-83" edge="1">
          <mxGeometry width="50" height="50" relative="1" as="geometry">
            <mxPoint x="680" y="640" as="sourcePoint" />
            <mxPoint x="730" y="590" as="targetPoint" />
          </mxGeometry>
        </mxCell>
        <mxCell id="I4P0Yg_FBCmQ30NMPcK1-87" value="" style="endArrow=none;html=1;rounded=1;entryX=0.113;entryY=-0.011;entryDx=0;entryDy=0;entryPerimeter=0;exitX=0.986;exitY=0.642;exitDx=0;exitDy=0;exitPerimeter=0;labelBackgroundColor=none;fontColor=default;strokeColor=#006658;" parent="1" source="I4P0Yg_FBCmQ30NMPcK1-77" target="I4P0Yg_FBCmQ30NMPcK1-72" edge="1">
          <mxGeometry width="50" height="50" relative="1" as="geometry">
            <mxPoint x="545" y="625" as="sourcePoint" />
            <mxPoint x="595" y="575" as="targetPoint" />
          </mxGeometry>
        </mxCell>
        <mxCell id="I4P0Yg_FBCmQ30NMPcK1-88" value="" style="endArrow=none;html=1;rounded=1;entryX=0;entryY=0.5;entryDx=0;entryDy=0;exitX=1;exitY=0.5;exitDx=0;exitDy=0;labelBackgroundColor=none;fontColor=default;strokeColor=#006658;" parent="1" source="I4P0Yg_FBCmQ30NMPcK1-84" target="I4P0Yg_FBCmQ30NMPcK1-72" edge="1">
          <mxGeometry width="50" height="50" relative="1" as="geometry">
            <mxPoint x="530" y="730" as="sourcePoint" />
            <mxPoint x="580" y="680" as="targetPoint" />
          </mxGeometry>
        </mxCell>
        <mxCell id="I4P0Yg_FBCmQ30NMPcK1-89" value="" style="endArrow=none;html=1;rounded=1;entryX=0.851;entryY=0.67;entryDx=0;entryDy=0;entryPerimeter=0;exitX=-0.014;exitY=0.406;exitDx=0;exitDy=0;exitPerimeter=0;labelBackgroundColor=none;fontColor=default;strokeColor=#006658;" parent="1" source="I4P0Yg_FBCmQ30NMPcK1-85" target="I4P0Yg_FBCmQ30NMPcK1-73" edge="1">
          <mxGeometry width="50" height="50" relative="1" as="geometry">
            <mxPoint x="690" y="810" as="sourcePoint" />
            <mxPoint x="740" y="760" as="targetPoint" />
          </mxGeometry>
        </mxCell>
        <mxCell id="I4P0Yg_FBCmQ30NMPcK1-91" value="" style="endArrow=none;html=1;rounded=1;entryX=0;entryY=0.5;entryDx=0;entryDy=0;exitX=1;exitY=0.5;exitDx=0;exitDy=0;labelBackgroundColor=none;fontColor=default;strokeColor=#006658;" parent="1" source="I4P0Yg_FBCmQ30NMPcK1-72" target="I4P0Yg_FBCmQ30NMPcK1-78" edge="1">
          <mxGeometry width="50" height="50" relative="1" as="geometry">
            <mxPoint x="690" y="760" as="sourcePoint" />
            <mxPoint x="740" y="710" as="targetPoint" />
          </mxGeometry>
        </mxCell>
        <mxCell id="I4P0Yg_FBCmQ30NMPcK1-94" value="" style="group;rotation=-180;labelBackgroundColor=none;rounded=1;fontColor=#5C5C5C;" parent="1" vertex="1" connectable="0">
          <mxGeometry x="620" y="560" width="56.67" height="50" as="geometry" />
        </mxCell>
        <mxCell id="I4P0Yg_FBCmQ30NMPcK1-92" value="" style="triangle;whiteSpace=wrap;html=1;rotation=-90;labelBackgroundColor=none;rounded=1;fillColor=#21C0A5;strokeColor=#006658;fontColor=#5C5C5C;" parent="I4P0Yg_FBCmQ30NMPcK1-94" vertex="1">
          <mxGeometry x="-10.625199996250188" y="-16.666666666666668" width="42.5025" height="66.66666666666667" as="geometry" />
        </mxCell>
        <mxCell id="I4P0Yg_FBCmQ30NMPcK1-93" value="ES" style="text;html=1;align=center;verticalAlign=middle;resizable=0;points=[];autosize=1;strokeColor=none;fillColor=none;rotation=0;labelBackgroundColor=none;rounded=1;fontColor=#5C5C5C;" parent="I4P0Yg_FBCmQ30NMPcK1-94" vertex="1">
          <mxGeometry x="-10.621449996250188" y="10.003333333333334" width="40" height="30" as="geometry" />
        </mxCell>
        <mxCell id="I4P0Yg_FBCmQ30NMPcK1-95" value="" style="endArrow=none;html=1;rounded=1;entryX=0;entryY=0.5;entryDx=0;entryDy=0;exitX=0.5;exitY=0;exitDx=0;exitDy=0;labelBackgroundColor=none;fontColor=default;strokeColor=#006658;" parent="1" source="I4P0Yg_FBCmQ30NMPcK1-72" target="I4P0Yg_FBCmQ30NMPcK1-92" edge="1">
          <mxGeometry width="50" height="50" relative="1" as="geometry">
            <mxPoint x="580" y="585" as="sourcePoint" />
            <mxPoint x="630" y="535" as="targetPoint" />
          </mxGeometry>
        </mxCell>
        <mxCell id="I4P0Yg_FBCmQ30NMPcK1-96" value="Administrador" style="whiteSpace=wrap;html=1;align=center;labelBackgroundColor=none;rounded=1;fontStyle=1;fillColor=#21C0A5;strokeColor=#006658;fontColor=#5C5C5C;" parent="1" vertex="1">
          <mxGeometry x="690" y="460" width="100" height="40" as="geometry" />
        </mxCell>
        <mxCell id="I4P0Yg_FBCmQ30NMPcK1-97" value="Paciente" style="whiteSpace=wrap;html=1;align=center;labelBackgroundColor=none;rounded=1;fontStyle=1;fillColor=#21C0A5;strokeColor=#006658;fontColor=#5C5C5C;" parent="1" vertex="1">
          <mxGeometry x="460" y="460" width="100" height="40" as="geometry" />
        </mxCell>
        <mxCell id="I4P0Yg_FBCmQ30NMPcK1-98" value="" style="endArrow=none;html=1;rounded=1;entryX=1;entryY=0.5;entryDx=0;entryDy=0;labelBackgroundColor=none;fontColor=default;strokeColor=#006658;" parent="1" target="I4P0Yg_FBCmQ30NMPcK1-92" edge="1">
          <mxGeometry width="50" height="50" relative="1" as="geometry">
            <mxPoint x="631" y="520" as="sourcePoint" />
            <mxPoint x="630" y="510" as="targetPoint" />
          </mxGeometry>
        </mxCell>
        <mxCell id="I4P0Yg_FBCmQ30NMPcK1-99" value="" style="endArrow=none;html=1;rounded=1;labelBackgroundColor=none;fontColor=default;strokeColor=#006658;" parent="1" edge="1">
          <mxGeometry width="50" height="50" relative="1" as="geometry">
            <mxPoint x="510" y="520" as="sourcePoint" />
            <mxPoint x="920" y="520" as="targetPoint" />
          </mxGeometry>
        </mxCell>
        <mxCell id="I4P0Yg_FBCmQ30NMPcK1-100" value="" style="endArrow=none;html=1;rounded=1;labelBackgroundColor=none;fontColor=default;strokeColor=#006658;" parent="1" edge="1">
          <mxGeometry width="50" height="50" relative="1" as="geometry">
            <mxPoint x="510" y="520" as="sourcePoint" />
            <mxPoint x="510" y="500" as="targetPoint" />
          </mxGeometry>
        </mxCell>
        <mxCell id="I4P0Yg_FBCmQ30NMPcK1-101" value="" style="endArrow=none;html=1;rounded=1;labelBackgroundColor=none;fontColor=default;strokeColor=#006658;" parent="1" edge="1">
          <mxGeometry width="50" height="50" relative="1" as="geometry">
            <mxPoint x="750" y="520" as="sourcePoint" />
            <mxPoint x="750" y="500" as="targetPoint" />
          </mxGeometry>
        </mxCell>
        <mxCell id="I4P0Yg_FBCmQ30NMPcK1-104" value="nombre" style="ellipse;whiteSpace=wrap;html=1;align=center;labelBackgroundColor=none;rounded=1;fillColor=#21C0A5;strokeColor=#006658;fontColor=#5C5C5C;" parent="1" vertex="1">
          <mxGeometry x="655" y="380" width="100" height="40" as="geometry" />
        </mxCell>
        <mxCell id="I4P0Yg_FBCmQ30NMPcK1-106" value="&lt;span style=&quot;border-bottom: 1px dotted&quot;&gt;rut_consultorio&lt;/span&gt;" style="ellipse;whiteSpace=wrap;html=1;align=center;labelBackgroundColor=none;rounded=1;fillColor=#21C0A5;strokeColor=#006658;fontColor=#5C5C5C;" parent="1" vertex="1">
          <mxGeometry x="780" y="380" width="100" height="40" as="geometry" />
        </mxCell>
        <mxCell id="I4P0Yg_FBCmQ30NMPcK1-107" value="" style="endArrow=none;html=1;rounded=1;exitX=0.75;exitY=0;exitDx=0;exitDy=0;labelBackgroundColor=none;fontColor=default;strokeColor=#006658;" parent="1" source="I4P0Yg_FBCmQ30NMPcK1-96" edge="1">
          <mxGeometry width="50" height="50" relative="1" as="geometry">
            <mxPoint x="770" y="470" as="sourcePoint" />
            <mxPoint x="820" y="420" as="targetPoint" />
          </mxGeometry>
        </mxCell>
        <mxCell id="I4P0Yg_FBCmQ30NMPcK1-108" value="" style="endArrow=none;html=1;rounded=1;exitX=0.213;exitY=-0.039;exitDx=0;exitDy=0;exitPerimeter=0;labelBackgroundColor=none;fontColor=default;strokeColor=#006658;" parent="1" source="I4P0Yg_FBCmQ30NMPcK1-96" edge="1">
          <mxGeometry width="50" height="50" relative="1" as="geometry">
            <mxPoint x="662" y="470" as="sourcePoint" />
            <mxPoint x="712" y="420" as="targetPoint" />
          </mxGeometry>
        </mxCell>
        <mxCell id="I4P0Yg_FBCmQ30NMPcK1-110" value="gravedad" style="ellipse;whiteSpace=wrap;html=1;align=center;labelBackgroundColor=none;rounded=1;fillColor=#21C0A5;strokeColor=#006658;fontColor=#5C5C5C;" parent="1" vertex="1">
          <mxGeometry x="720" y="950" width="100" height="40" as="geometry" />
        </mxCell>
        <mxCell id="I4P0Yg_FBCmQ30NMPcK1-111" value="&lt;font style=&quot;font-size: 10px;&quot;&gt;fecha_entrega&lt;/font&gt;" style="ellipse;whiteSpace=wrap;html=1;align=center;labelBackgroundColor=none;rounded=1;fillColor=#21C0A5;strokeColor=#006658;fontColor=#5C5C5C;" parent="1" vertex="1">
          <mxGeometry x="605" y="930" width="80" height="32" as="geometry" />
        </mxCell>
        <mxCell id="I4P0Yg_FBCmQ30NMPcK1-113" value="id" style="ellipse;whiteSpace=wrap;html=1;align=center;fontStyle=4;labelBackgroundColor=none;rounded=1;fillColor=#21C0A5;strokeColor=#006658;fontColor=#5C5C5C;" parent="1" vertex="1">
          <mxGeometry x="520" y="920" width="60" height="40" as="geometry" />
        </mxCell>
        <mxCell id="I4P0Yg_FBCmQ30NMPcK1-114" value="" style="endArrow=none;html=1;rounded=1;exitX=0.5;exitY=1;exitDx=0;exitDy=0;entryX=0.5;entryY=0;entryDx=0;entryDy=0;labelBackgroundColor=none;fontColor=default;strokeColor=#006658;" parent="1" source="I4P0Yg_FBCmQ30NMPcK1-68" target="I4P0Yg_FBCmQ30NMPcK1-111" edge="1">
          <mxGeometry width="50" height="50" relative="1" as="geometry">
            <mxPoint x="620" y="902" as="sourcePoint" />
            <mxPoint x="630" y="930" as="targetPoint" />
          </mxGeometry>
        </mxCell>
        <mxCell id="I4P0Yg_FBCmQ30NMPcK1-115" value="" style="endArrow=none;html=1;rounded=1;entryX=0.68;entryY=0.994;entryDx=0;entryDy=0;entryPerimeter=0;exitX=0.069;exitY=0.253;exitDx=0;exitDy=0;exitPerimeter=0;labelBackgroundColor=none;fontColor=default;strokeColor=#006658;" parent="1" source="I4P0Yg_FBCmQ30NMPcK1-110" target="I4P0Yg_FBCmQ30NMPcK1-68" edge="1">
          <mxGeometry width="50" height="50" relative="1" as="geometry">
            <mxPoint x="726" y="955" as="sourcePoint" />
            <mxPoint x="720" y="890" as="targetPoint" />
          </mxGeometry>
        </mxCell>
        <mxCell id="I4P0Yg_FBCmQ30NMPcK1-116" value="" style="endArrow=none;html=1;rounded=1;exitX=0.8;exitY=0.058;exitDx=0;exitDy=0;exitPerimeter=0;entryX=0.058;entryY=1.022;entryDx=0;entryDy=0;entryPerimeter=0;labelBackgroundColor=none;fontColor=default;strokeColor=#006658;" parent="1" source="I4P0Yg_FBCmQ30NMPcK1-113" target="I4P0Yg_FBCmQ30NMPcK1-68" edge="1">
          <mxGeometry width="50" height="50" relative="1" as="geometry">
            <mxPoint x="570" y="930" as="sourcePoint" />
            <mxPoint x="620" y="880" as="targetPoint" />
          </mxGeometry>
        </mxCell>
        <mxCell id="I4P0Yg_FBCmQ30NMPcK1-122" value="1" style="text;html=1;align=center;verticalAlign=middle;resizable=0;points=[];autosize=1;strokeColor=none;fillColor=none;labelBackgroundColor=none;rounded=1;fontColor=#5C5C5C;" parent="1" vertex="1">
          <mxGeometry x="632" y="690" width="30" height="30" as="geometry" />
        </mxCell>
        <mxCell id="I4P0Yg_FBCmQ30NMPcK1-123" value="n" style="text;html=1;align=center;verticalAlign=middle;resizable=0;points=[];autosize=1;strokeColor=none;fillColor=none;labelBackgroundColor=none;rounded=1;fontColor=#5C5C5C;" parent="1" vertex="1">
          <mxGeometry x="632" y="832" width="30" height="30" as="geometry" />
        </mxCell>
        <mxCell id="I4P0Yg_FBCmQ30NMPcK1-125" value="Genera" style="rhombus;whiteSpace=wrap;html=1;labelBackgroundColor=none;rounded=1;fillColor=#21C0A5;strokeColor=#006658;fontColor=#5C5C5C;" parent="1" vertex="1">
          <mxGeometry x="770" y="857" width="50" height="50" as="geometry" />
        </mxCell>
        <mxCell id="I4P0Yg_FBCmQ30NMPcK1-126" value="" style="fontSize=12;html=1;endArrow=ERone;endFill=1;rounded=1;entryX=1;entryY=0.5;entryDx=0;entryDy=0;exitX=0;exitY=0.5;exitDx=0;exitDy=0;labelBackgroundColor=none;fontColor=default;strokeColor=#006658;" parent="1" source="I4P0Yg_FBCmQ30NMPcK1-125" target="I4P0Yg_FBCmQ30NMPcK1-68" edge="1">
          <mxGeometry width="100" height="100" relative="1" as="geometry">
            <mxPoint x="870" y="1100" as="sourcePoint" />
            <mxPoint x="970" y="1000" as="targetPoint" />
          </mxGeometry>
        </mxCell>
        <mxCell id="I4P0Yg_FBCmQ30NMPcK1-127" value="" style="fontSize=12;html=1;endArrow=ERmany;rounded=1;entryX=0;entryY=0.5;entryDx=0;entryDy=0;exitX=1;exitY=0.5;exitDx=0;exitDy=0;labelBackgroundColor=none;fontColor=default;strokeColor=#006658;" parent="1" source="I4P0Yg_FBCmQ30NMPcK1-125" edge="1">
          <mxGeometry width="100" height="100" relative="1" as="geometry">
            <mxPoint x="760" y="1142" as="sourcePoint" />
            <mxPoint x="880" y="882" as="targetPoint" />
          </mxGeometry>
        </mxCell>
        <mxCell id="I4P0Yg_FBCmQ30NMPcK1-128" value="1" style="text;html=1;align=center;verticalAlign=middle;resizable=0;points=[];autosize=1;strokeColor=none;fillColor=none;labelBackgroundColor=none;rounded=1;fontColor=#5C5C5C;" parent="1" vertex="1">
          <mxGeometry x="680" y="850" width="30" height="30" as="geometry" />
        </mxCell>
        <mxCell id="I4P0Yg_FBCmQ30NMPcK1-129" value="n" style="text;html=1;align=center;verticalAlign=middle;resizable=0;points=[];autosize=1;strokeColor=none;fillColor=none;labelBackgroundColor=none;rounded=1;fontColor=#5C5C5C;" parent="1" vertex="1">
          <mxGeometry x="850" y="850" width="30" height="30" as="geometry" />
        </mxCell>
        <mxCell id="I4P0Yg_FBCmQ30NMPcK1-130" value="estado" style="ellipse;whiteSpace=wrap;html=1;align=center;labelBackgroundColor=none;rounded=1;fillColor=#21C0A5;strokeColor=#006658;fontColor=#5C5C5C;" parent="1" vertex="1">
          <mxGeometry x="880" y="950" width="100" height="40" as="geometry" />
        </mxCell>
        <mxCell id="I4P0Yg_FBCmQ30NMPcK1-131" value="" style="endArrow=none;html=1;rounded=1;entryX=0.5;entryY=1;entryDx=0;entryDy=0;exitX=0.5;exitY=0;exitDx=0;exitDy=0;labelBackgroundColor=none;fontColor=default;strokeColor=#006658;" parent="1" source="I4P0Yg_FBCmQ30NMPcK1-130" target="IlIiJ1VNcMwmGBLxOHKj-47" edge="1">
          <mxGeometry width="50" height="50" relative="1" as="geometry">
            <mxPoint x="1020" y="1010" as="sourcePoint" />
            <mxPoint x="930" y="902" as="targetPoint" />
          </mxGeometry>
        </mxCell>
        <mxCell id="I4P0Yg_FBCmQ30NMPcK1-133" value="&lt;span style=&quot;border-bottom: 1px dotted&quot;&gt;fecha&lt;/span&gt;" style="ellipse;whiteSpace=wrap;html=1;align=center;labelBackgroundColor=none;rounded=1;fillColor=#21C0A5;strokeColor=#006658;fontColor=#5C5C5C;" parent="1" vertex="1">
          <mxGeometry x="1010" y="914" width="100" height="40" as="geometry" />
        </mxCell>
        <mxCell id="I4P0Yg_FBCmQ30NMPcK1-136" value="medicacion" style="ellipse;whiteSpace=wrap;html=1;align=center;labelBackgroundColor=none;rounded=1;fillColor=#21C0A5;strokeColor=#006658;fontColor=#5C5C5C;" parent="1" vertex="1">
          <mxGeometry x="1050" y="832" width="100" height="40" as="geometry" />
        </mxCell>
        <mxCell id="I4P0Yg_FBCmQ30NMPcK1-138" value="" style="endArrow=none;html=1;rounded=1;entryX=1;entryY=1;entryDx=0;entryDy=0;exitX=0.08;exitY=0.2;exitDx=0;exitDy=0;exitPerimeter=0;labelBackgroundColor=none;fontColor=default;strokeColor=#006658;" parent="1" source="I4P0Yg_FBCmQ30NMPcK1-133" target="IlIiJ1VNcMwmGBLxOHKj-47" edge="1">
          <mxGeometry width="50" height="50" relative="1" as="geometry">
            <mxPoint x="1000" y="922" as="sourcePoint" />
            <mxPoint x="980" y="892" as="targetPoint" />
          </mxGeometry>
        </mxCell>
        <mxCell id="I4P0Yg_FBCmQ30NMPcK1-139" value="" style="endArrow=none;html=1;rounded=1;exitX=1;exitY=0.5;exitDx=0;exitDy=0;entryX=0.04;entryY=0.75;entryDx=0;entryDy=0;entryPerimeter=0;labelBackgroundColor=none;fontColor=default;strokeColor=#006658;" parent="1" source="IlIiJ1VNcMwmGBLxOHKj-47" target="I4P0Yg_FBCmQ30NMPcK1-136" edge="1">
          <mxGeometry width="50" height="50" relative="1" as="geometry">
            <mxPoint x="980" y="872" as="sourcePoint" />
            <mxPoint x="1050" y="857" as="targetPoint" />
          </mxGeometry>
        </mxCell>
        <mxCell id="I4P0Yg_FBCmQ30NMPcK1-140" value="nivel" style="ellipse;whiteSpace=wrap;html=1;align=center;labelBackgroundColor=none;rounded=1;fillColor=#21C0A5;strokeColor=#006658;fontColor=#5C5C5C;" parent="1" vertex="1">
          <mxGeometry x="210" y="882" width="90" height="29" as="geometry" />
        </mxCell>
        <mxCell id="I4P0Yg_FBCmQ30NMPcK1-141" value="tiene_urgencia" style="ellipse;whiteSpace=wrap;html=1;align=center;labelBackgroundColor=none;rounded=1;fillColor=#21C0A5;strokeColor=#006658;fontColor=#5C5C5C;" parent="1" vertex="1">
          <mxGeometry x="190" y="940" width="110" height="30" as="geometry" />
        </mxCell>
        <mxCell id="I4P0Yg_FBCmQ30NMPcK1-143" value="" style="endArrow=none;html=1;rounded=1;entryX=0.955;entryY=0.725;entryDx=0;entryDy=0;entryPerimeter=0;exitX=0;exitY=0.25;exitDx=0;exitDy=0;labelBackgroundColor=none;fontColor=default;strokeColor=#006658;" parent="1" source="I4P0Yg_FBCmQ30NMPcK1-1" target="I4P0Yg_FBCmQ30NMPcK1-141" edge="1">
          <mxGeometry width="50" height="50" relative="1" as="geometry">
            <mxPoint x="640" y="1000" as="sourcePoint" />
            <mxPoint x="690" y="950" as="targetPoint" />
          </mxGeometry>
        </mxCell>
        <mxCell id="I4P0Yg_FBCmQ30NMPcK1-144" value="" style="endArrow=none;html=1;rounded=1;entryX=1;entryY=1;entryDx=0;entryDy=0;exitX=0;exitY=0;exitDx=0;exitDy=0;labelBackgroundColor=none;fontColor=default;strokeColor=#006658;" parent="1" source="I4P0Yg_FBCmQ30NMPcK1-1" target="I4P0Yg_FBCmQ30NMPcK1-140" edge="1">
          <mxGeometry width="50" height="50" relative="1" as="geometry">
            <mxPoint x="640" y="1000" as="sourcePoint" />
            <mxPoint x="690" y="950" as="targetPoint" />
          </mxGeometry>
        </mxCell>
        <mxCell id="IlIiJ1VNcMwmGBLxOHKj-21" value="" style="endArrow=none;html=1;rounded=1;exitX=0;exitY=0.5;exitDx=0;exitDy=0;entryX=1;entryY=0.5;entryDx=0;entryDy=0;labelBackgroundColor=none;fontColor=default;strokeColor=#006658;" parent="1" source="I4P0Yg_FBCmQ30NMPcK1-5" target="I4P0Yg_FBCmQ30NMPcK1-1" edge="1">
          <mxGeometry width="50" height="50" relative="1" as="geometry">
            <mxPoint x="630" y="1120" as="sourcePoint" />
            <mxPoint x="470" y="1010" as="targetPoint" />
          </mxGeometry>
        </mxCell>
        <mxCell id="IlIiJ1VNcMwmGBLxOHKj-25" value="" style="endArrow=none;html=1;rounded=1;exitX=0.64;exitY=0.056;exitDx=0;exitDy=0;entryX=0.29;entryY=1.025;entryDx=0;entryDy=0;entryPerimeter=0;exitPerimeter=0;labelBackgroundColor=none;fontColor=default;strokeColor=#006658;" parent="1" source="IlIiJ1VNcMwmGBLxOHKj-47" target="IlIiJ1VNcMwmGBLxOHKj-27" edge="1">
          <mxGeometry width="50" height="50" relative="1" as="geometry">
            <mxPoint x="930" y="862" as="sourcePoint" />
            <mxPoint x="953" y="773" as="targetPoint" />
          </mxGeometry>
        </mxCell>
        <mxCell id="IlIiJ1VNcMwmGBLxOHKj-27" value="rut_profesional" style="ellipse;shape=doubleEllipse;margin=3;whiteSpace=wrap;html=1;align=center;labelBackgroundColor=none;rounded=1;fillColor=#21C0A5;strokeColor=#006658;fontColor=#5C5C5C;" parent="1" vertex="1">
          <mxGeometry x="930" y="740" width="100" height="40" as="geometry" />
        </mxCell>
        <mxCell id="IlIiJ1VNcMwmGBLxOHKj-28" value="Profesional" style="whiteSpace=wrap;html=1;align=center;labelBackgroundColor=none;rounded=1;fontStyle=1;fillColor=#21C0A5;strokeColor=#006658;fontColor=#5C5C5C;" parent="1" vertex="1">
          <mxGeometry x="870" y="460" width="100" height="40" as="geometry" />
        </mxCell>
        <mxCell id="IlIiJ1VNcMwmGBLxOHKj-29" value="" style="endArrow=none;html=1;rounded=1;labelBackgroundColor=none;fontColor=default;strokeColor=#006658;" parent="1" edge="1">
          <mxGeometry width="50" height="50" relative="1" as="geometry">
            <mxPoint x="919.5" y="520" as="sourcePoint" />
            <mxPoint x="919.5" y="500" as="targetPoint" />
          </mxGeometry>
        </mxCell>
        <mxCell id="IlIiJ1VNcMwmGBLxOHKj-30" value="area" style="ellipse;shape=doubleEllipse;margin=3;whiteSpace=wrap;html=1;align=center;labelBackgroundColor=none;rounded=1;fillColor=#21C0A5;strokeColor=#006658;fontColor=#5C5C5C;" parent="1" vertex="1">
          <mxGeometry x="920" y="370" width="100" height="40" as="geometry" />
        </mxCell>
        <mxCell id="IlIiJ1VNcMwmGBLxOHKj-31" value="" style="endArrow=none;html=1;rounded=1;exitX=0.75;exitY=0;exitDx=0;exitDy=0;entryX=0.5;entryY=1;entryDx=0;entryDy=0;labelBackgroundColor=none;fontColor=default;strokeColor=#006658;" parent="1" source="IlIiJ1VNcMwmGBLxOHKj-28" target="IlIiJ1VNcMwmGBLxOHKj-30" edge="1">
          <mxGeometry width="50" height="50" relative="1" as="geometry">
            <mxPoint x="920" y="460" as="sourcePoint" />
            <mxPoint x="975" y="420" as="targetPoint" />
          </mxGeometry>
        </mxCell>
        <mxCell id="IlIiJ1VNcMwmGBLxOHKj-33" value="tiene_sapu" style="ellipse;whiteSpace=wrap;html=1;align=center;labelBackgroundColor=none;rounded=1;fillColor=#21C0A5;strokeColor=#006658;fontColor=#5C5C5C;" parent="1" vertex="1">
          <mxGeometry x="30" y="950" width="110" height="30" as="geometry" />
        </mxCell>
        <mxCell id="IlIiJ1VNcMwmGBLxOHKj-34" value="" style="endArrow=none;html=1;rounded=1;entryX=1;entryY=0.5;entryDx=0;entryDy=0;exitX=0;exitY=0.25;exitDx=0;exitDy=0;labelBackgroundColor=none;fontColor=default;strokeColor=#006658;" parent="1" target="IlIiJ1VNcMwmGBLxOHKj-33" edge="1">
          <mxGeometry width="50" height="50" relative="1" as="geometry">
            <mxPoint x="364.5" y="1008" as="sourcePoint" />
            <mxPoint x="295.5" y="970" as="targetPoint" />
          </mxGeometry>
        </mxCell>
        <mxCell id="IlIiJ1VNcMwmGBLxOHKj-35" value="" style="endArrow=none;html=1;rounded=1;entryX=0.907;entryY=0.974;entryDx=0;entryDy=0;exitX=0.065;exitY=0.176;exitDx=0;exitDy=0;exitPerimeter=0;entryPerimeter=0;labelBackgroundColor=none;fontColor=default;strokeColor=#006658;" parent="1" source="IlIiJ1VNcMwmGBLxOHKj-36" target="I4P0Yg_FBCmQ30NMPcK1-1" edge="1">
          <mxGeometry width="50" height="50" relative="1" as="geometry">
            <mxPoint x="540" y="1190" as="sourcePoint" />
            <mxPoint x="446" y="1030" as="targetPoint" />
          </mxGeometry>
        </mxCell>
        <mxCell id="IlIiJ1VNcMwmGBLxOHKj-36" value="complejidad" style="ellipse;whiteSpace=wrap;html=1;align=center;labelBackgroundColor=none;rounded=1;fillColor=#21C0A5;strokeColor=#006658;fontColor=#5C5C5C;" parent="1" vertex="1">
          <mxGeometry x="532" y="1160" width="100" height="40" as="geometry" />
        </mxCell>
        <mxCell id="IlIiJ1VNcMwmGBLxOHKj-37" value="" style="endArrow=none;html=1;rounded=1;entryX=1;entryY=0.75;entryDx=0;entryDy=0;exitX=0;exitY=0.5;exitDx=0;exitDy=0;labelBackgroundColor=none;fontColor=default;strokeColor=#006658;" parent="1" source="IlIiJ1VNcMwmGBLxOHKj-38" target="I4P0Yg_FBCmQ30NMPcK1-1" edge="1">
          <mxGeometry width="50" height="50" relative="1" as="geometry">
            <mxPoint x="720" y="1070" as="sourcePoint" />
            <mxPoint x="619" y="972" as="targetPoint" />
          </mxGeometry>
        </mxCell>
        <mxCell id="IlIiJ1VNcMwmGBLxOHKj-38" value="modalidad" style="ellipse;whiteSpace=wrap;html=1;align=center;labelBackgroundColor=none;rounded=1;fillColor=#21C0A5;strokeColor=#006658;fontColor=#5C5C5C;" parent="1" vertex="1">
          <mxGeometry x="645" y="1030" width="100" height="40" as="geometry" />
        </mxCell>
        <mxCell id="IlIiJ1VNcMwmGBLxOHKj-40" value="coordenadas" style="ellipse;whiteSpace=wrap;html=1;align=center;labelBackgroundColor=none;rounded=1;fillColor=#21C0A5;strokeColor=#006658;fontColor=#5C5C5C;" parent="1" vertex="1">
          <mxGeometry x="250" y="1120" width="100" height="40" as="geometry" />
        </mxCell>
        <mxCell id="IlIiJ1VNcMwmGBLxOHKj-42" value="" style="endArrow=none;html=1;rounded=1;exitX=0.695;exitY=0.052;exitDx=0;exitDy=0;entryX=0.25;entryY=1;entryDx=0;entryDy=0;exitPerimeter=0;labelBackgroundColor=none;fontColor=default;strokeColor=#006658;" parent="1" source="IlIiJ1VNcMwmGBLxOHKj-40" target="I4P0Yg_FBCmQ30NMPcK1-1" edge="1">
          <mxGeometry width="50" height="50" relative="1" as="geometry">
            <mxPoint x="312" y="1080" as="sourcePoint" />
            <mxPoint x="374" y="1040" as="targetPoint" />
          </mxGeometry>
        </mxCell>
        <mxCell id="IlIiJ1VNcMwmGBLxOHKj-44" value="" style="endArrow=none;html=1;rounded=1;entryX=0.75;entryY=1;entryDx=0;entryDy=0;exitX=0.5;exitY=0;exitDx=0;exitDy=0;labelBackgroundColor=none;fontColor=default;strokeColor=#006658;" parent="1" source="IlIiJ1VNcMwmGBLxOHKj-45" target="I4P0Yg_FBCmQ30NMPcK1-1" edge="1">
          <mxGeometry width="50" height="50" relative="1" as="geometry">
            <mxPoint x="440" y="1140" as="sourcePoint" />
            <mxPoint x="465" y="1039" as="targetPoint" />
          </mxGeometry>
        </mxCell>
        <mxCell id="IlIiJ1VNcMwmGBLxOHKj-45" value="n_telefono" style="ellipse;shape=doubleEllipse;margin=3;whiteSpace=wrap;html=1;align=center;labelBackgroundColor=none;rounded=1;fillColor=#21C0A5;strokeColor=#006658;fontColor=#5C5C5C;" parent="1" vertex="1">
          <mxGeometry x="390" y="1140" width="100" height="40" as="geometry" />
        </mxCell>
        <mxCell id="IlIiJ1VNcMwmGBLxOHKj-47" value="AtenciÃ³n" style="whiteSpace=wrap;html=1;align=center;labelBackgroundColor=none;rounded=1;fontStyle=1;fillColor=#21C0A5;strokeColor=#006658;fontColor=#5C5C5C;" parent="1" vertex="1">
          <mxGeometry x="880" y="862" width="100" height="40" as="geometry" />
        </mxCell>
      </root>
    </mxGraphModel>
  </diagram>
</mxfile>
